<svg width="95" height="102" viewBox="0 0 95 102" fill="currentColor" xmlns="http://www.w3.org/2000/svg">
<g clip-path="url(#clip0)">
<path d="M82.3333 76H12.6667C9.17014 76 6.1849 74.763 3.71094 72.2891C1.23698 69.8151 0 66.8299 0 63.3334V38C0 34.5035 1.23698 31.5182 3.71094 29.0443C6.1849 26.5703 9.17014 25.3333 12.6667 25.3333H82.3333C85.8299 25.3333 88.8151 26.5703 91.2891 29.0443C93.763 31.5182 95 34.5035 95 38V63.3334C95 66.8299 93.763 69.8151 91.2891 72.2891C88.8151 74.763 85.8299 76 82.3333 76ZM25.3333 41.1667C25.3333 40.309 25.02 39.5668 24.3932 38.9401C23.7665 38.3134 23.0243 38 22.1667 38H9.5C8.64236 38 7.90017 38.3134 7.27344 38.9401C6.6467 39.5668 6.33333 40.309 6.33333 41.1667V60.1667C6.33333 61.0243 6.6467 61.7665 7.27344 62.3932C7.90017 63.02 8.64236 63.3334 9.5 63.3334C10.3576 63.3334 11.0998 63.02 11.7266 62.3932C12.3533 61.7665 12.6667 61.0243 12.6667 60.1667V57H19V60.1667C19 61.0243 19.3134 61.7665 19.9401 62.3932C20.5668 63.02 21.309 63.3334 22.1667 63.3334C23.0243 63.3334 23.7665 63.02 24.3932 62.3932C25.02 61.7665 25.3333 61.0243 25.3333 60.1667V57H22.1667C21.309 57 20.5668 56.6866 19.9401 56.0599C19.3134 55.4332 19 54.691 19 53.8333C19 52.9757 19.3134 52.2335 19.9401 51.6068C20.5668 50.98 21.309 50.6667 22.1667 50.6667H25.3333V41.1667ZM50.6667 41.1667C50.6667 40.309 50.3533 39.5668 49.7266 38.9401C49.0998 38.3134 48.3576 38 47.5 38H34.8333C33.9757 38 33.2335 38.3134 32.6068 38.9401C31.98 39.5668 31.6667 40.309 31.6667 41.1667V60.1667C31.6667 61.0243 31.98 61.7665 32.6068 62.3932C33.2335 63.02 33.9757 63.3334 34.8333 63.3334C35.691 63.3334 36.4332 63.02 37.0599 62.3932C37.6866 61.7665 38 61.0243 38 60.1667V57H44.3333V60.1667C44.3333 61.0243 44.6467 61.7665 45.2734 62.3932C45.9002 63.02 46.6424 63.3334 47.5 63.3334C48.3576 63.3334 49.0998 63.02 49.7266 62.3932C50.3533 61.7665 50.6667 61.0243 50.6667 60.1667V41.1667ZM88.6667 41.1667C88.6667 40.309 88.3533 39.5668 87.7266 38.9401C87.0998 38.3134 86.3576 38 85.5 38H60.1667C59.309 38 58.5668 38.3134 57.9401 38.9401C57.3134 39.5668 57 40.309 57 41.1667V60.1667C57 61.0243 57.3134 61.7665 57.9401 62.3932C58.5668 63.02 59.309 63.3334 60.1667 63.3334C61.0243 63.3334 61.7665 63.02 62.3932 62.3932C63.02 61.7665 63.3333 61.0243 63.3333 60.1667V44.3333H69.6667V60.1667C69.6667 61.0243 69.98 61.7665 70.6068 62.3932C71.2335 63.02 71.9757 63.3334 72.8333 63.3334C73.691 63.3334 74.4332 63.02 75.0599 62.3932C75.6866 61.7665 76 61.0243 76 60.1667V44.3333H82.3333V60.1667C82.3333 61.0243 82.6467 61.7665 83.2734 62.3932C83.9002 63.02 84.6424 63.3334 85.5 63.3334C86.3576 63.3334 87.0998 63.02 87.7266 62.3932C88.3533 61.7665 88.6667 61.0243 88.6667 60.1667V41.1667ZM38 44.3333H44.3333V50.6667H38V44.3333ZM12.6667 44.3333H19V50.6667H12.6667V44.3333ZM76 3.16667C76 2.30903 76.3134 1.56684 76.9401 0.940104C77.5668 0.313368 78.309 0 79.1667 0C80.0243 0 80.7665 0.313368 81.3932 0.940104C82.02 1.56684 82.3333 2.30903 82.3333 3.16667V19H76V3.16667ZM63.3333 3.16667C63.3333 2.30903 63.6467 1.56684 64.2734 0.940104C64.9002 0.313368 65.6424 0 66.5 0C67.3576 0 68.0998 0.313368 68.7266 0.940104C69.3533 1.56684 69.6667 2.30903 69.6667 3.16667V19H63.3333V3.16667ZM50.6667 3.16667C50.6667 2.30903 50.98 1.56684 51.6068 0.940104C52.2335 0.313368 52.9757 0 53.8333 0C54.691 0 55.4332 0.313368 56.0599 0.940104C56.6866 1.56684 57 2.30903 57 3.16667V19H50.6667V3.16667ZM38 3.16667C38 2.30903 38.3134 1.56684 38.9401 0.940104C39.5668 0.313368 40.309 0 41.1667 0C42.0243 0 42.7665 0.313368 43.3932 0.940104C44.02 1.56684 44.3333 2.30903 44.3333 3.16667V19H38V3.16667ZM25.3333 3.16667C25.3333 2.30903 25.6467 1.56684 26.2734 0.940104C26.9002 0.313368 27.6424 0 28.5 0C29.3576 0 30.0998 0.313368 30.7266 0.940104C31.3533 1.56684 31.6667 2.30903 31.6667 3.16667V19H25.3333V3.16667ZM12.6667 3.16667C12.6667 2.30903 12.98 1.56684 13.6068 0.940104C14.2335 0.313368 14.9757 0 15.8333 0C16.691 0 17.4332 0.313368 18.0599 0.940104C18.6866 1.56684 19 2.30903 19 3.16667V19H12.6667V3.16667ZM19 98.1667C19 99.0243 18.6866 99.7665 18.0599 100.393C17.4332 101.02 16.691 101.333 15.8333 101.333C14.9757 101.333 14.2335 101.02 13.6068 100.393C12.98 99.7665 12.6667 99.0243 12.6667 98.1667V82.3334H19V98.1667ZM31.6667 98.1667C31.6667 99.0243 31.3533 99.7665 30.7266 100.393C30.0998 101.02 29.3576 101.333 28.5 101.333C27.6424 101.333 26.9002 101.02 26.2734 100.393C25.6467 99.7665 25.3333 99.0243 25.3333 98.1667V82.3334H31.6667V98.1667ZM44.3333 98.1667C44.3333 99.0243 44.02 99.7665 43.3932 100.393C42.7665 101.02 42.0243 101.333 41.1667 101.333C40.309 101.333 39.5668 101.02 38.9401 100.393C38.3134 99.7665 38 99.0243 38 98.1667V82.3334H44.3333V98.1667ZM57 98.1667C57 99.0243 56.6866 99.7665 56.0599 100.393C55.4332 101.02 54.691 101.333 53.8333 101.333C52.9757 101.333 52.2335 101.02 51.6068 100.393C50.98 99.7665 50.6667 99.0243 50.6667 98.1667V82.3334H57V98.1667ZM69.6667 98.1667C69.6667 99.0243 69.3533 99.7665 68.7266 100.393C68.0998 101.02 67.3576 101.333 66.5 101.333C65.6424 101.333 64.9002 101.02 64.2734 100.393C63.6467 99.7665 63.3333 99.0243 63.3333 98.1667V82.3334H69.6667V98.1667ZM82.3333 98.1667C82.3333 99.0243 82.02 99.7665 81.3932 100.393C80.7665 101.02 80.0243 101.333 79.1667 101.333C78.309 101.333 77.5668 101.02 76.9401 100.393C76.3134 99.7665 76 99.0243 76 98.1667V82.3334H82.3333V98.1667Z" fill="#00E0FF"/>
</g>
<defs>
<clipPath id="clip0">
<rect width="95" height="101.333" fill="white"/>
</clipPath>
</defs>
</svg>
